<?xml version="1.0" standalone="no"?>
<!DOCTYPE svg PUBLIC "-//W3C//DTD SVG 20010904//EN"
 "http://www.w3.org/TR/2001/REC-SVG-20010904/DTD/svg10.dtd">
<svg version="1.0" xmlns="http://www.w3.org/2000/svg"
 width="655.000000pt" height="124.000000pt" viewBox="0 0 655.000000 124.000000"
 preserveAspectRatio="xMidYMid meet">

<g transform="translate(0.000000,124.000000) scale(0.100000,-0.100000)"
fill="#000000" stroke="none">
<path d="M5310 1225 c0 -5 233 -477 255 -515 l14 -25 473 -2 c260 -1 466 1
458 4 -8 3 -44 19 -80 36 -36 16 -123 55 -195 87 -71 32 -166 75 -210 95 -44
21 -199 91 -345 157 -146 66 -289 131 -317 144 -29 13 -53 22 -53 19z"/>
<path d="M307 933 c-232 -490 -287 -606 -287 -609 0 -10 138 -3 153 8 9 7 29
45 45 83 l29 70 129 0 129 0 15 -70 c8 -39 19 -76 23 -83 6 -9 84 -12 322 -12
173 0 316 3 318 8 3 4 7 30 8 57 l4 50 -152 3 c-84 1 -153 5 -153 8 0 4 83
122 183 263 199 278 207 290 207 320 0 21 -4 21 -249 21 l-248 0 -7 -31 c-3
-17 -6 -44 -6 -60 l0 -29 140 0 c87 0 140 -4 140 -10 0 -14 -357 -511 -366
-511 -7 0 -58 207 -134 544 l-22 97 -82 0 -83 0 -56 -117z m152 -174 c31 -185
37 -169 -69 -169 -52 0 -90 4 -90 10 0 10 65 175 100 254 12 26 25 44 30 40 4
-5 17 -66 29 -135z"/>
<path d="M1316 1008 c-62 -470 -61 -531 5 -611 50 -61 100 -81 199 -81 101 0
170 26 234 90 68 68 83 119 116 383 17 130 30 242 30 249 0 8 -22 12 -75 12
-69 0 -75 -2 -79 -22 -3 -13 -17 -121 -31 -242 -27 -232 -40 -275 -91 -315
-35 -28 -85 -36 -129 -21 -30 10 -41 21 -57 58 l-21 46 27 221 c15 121 29 232
32 248 l6 27 -81 0 -80 0 -5 -42z"/>
<path d="M1986 1013 c-3 -21 -22 -175 -41 -343 -20 -168 -38 -315 -40 -327 -5
-22 -3 -23 74 -23 l79 0 12 117 c15 142 22 163 52 163 43 0 55 -18 99 -148 45
-133 44 -132 144 -132 47 0 85 1 85 3 -1 15 -111 262 -124 275 -18 21 -21 42
-6 42 22 0 95 78 116 125 42 89 28 173 -39 232 -47 41 -107 53 -272 53 l-133
0 -6 -37z m259 -87 c44 -19 58 -48 53 -108 -6 -58 -35 -93 -87 -108 -38 -10
-94 -13 -103 -5 -5 5 18 201 27 223 6 16 68 15 110 -2z"/>
<path d="M3282 958 c-18 -83 -122 -615 -122 -622 0 -10 58 -7 65 5 8 11 25 97
85 409 23 118 44 225 47 238 5 20 1 22 -29 22 -34 0 -35 -1 -46 -52z"/>
<path d="M3945 998 c-2 -7 -25 -119 -50 -248 -25 -129 -55 -272 -66 -318 -11
-46 -17 -87 -14 -92 11 -18 44 -10 56 13 6 12 13 24 15 26 1 2 18 -7 35 -20
49 -35 140 -38 194 -7 125 73 180 345 86 425 -48 42 -148 25 -214 -36 l-28
-25 5 34 c2 19 14 80 25 134 12 55 21 105 21 113 0 17 -59 18 -65 1z m206
-277 c21 -17 24 -27 23 -88 -2 -200 -137 -318 -242 -210 l-31 32 14 63 c40
168 156 268 236 203z"/>
<path d="M4873 903 c-12 -60 -43 -207 -68 -328 -25 -120 -43 -225 -41 -232 6
-14 34 -17 53 -5 7 4 29 91 48 192 56 287 85 433 90 458 5 19 1 22 -28 22
l-33 0 -21 -107z"/>
<path d="M5110 985 c0 -2 38 -82 85 -176 47 -95 85 -178 85 -184 0 -12 -23
-69 -60 -150 -78 -168 -108 -240 -101 -243 4 -1 60 22 124 52 l116 55 29 63
c16 35 46 98 67 142 l37 78 -62 125 -61 124 -107 50 c-121 57 -152 70 -152 64z"/>
<path d="M2849 951 c-60 -23 -132 -74 -163 -114 -68 -89 -105 -226 -86 -325
22 -118 88 -172 223 -180 86 -5 196 18 219 45 17 21 70 275 59 286 -4 4 -57 6
-117 5 -104 -3 -109 -4 -112 -25 -3 -22 0 -23 72 -23 89 0 86 6 60 -126 -16
-81 -16 -82 -54 -93 -20 -6 -67 -11 -102 -11 -74 0 -116 22 -156 80 -21 31
-23 44 -20 120 3 69 9 96 32 143 36 73 87 124 155 155 46 21 64 24 126 20 50
-3 84 -12 110 -26 45 -27 52 -27 60 -2 9 27 -6 44 -60 69 -57 27 -178 27 -246
2z"/>
<path d="M3505 781 c-53 -25 -88 -64 -120 -134 -52 -112 -43 -246 19 -290 37
-26 145 -36 201 -17 96 32 163 134 172 264 6 82 -6 128 -41 161 -41 39 -163
47 -231 16z m172 -65 c26 -22 28 -29 27 -93 -2 -85 -24 -147 -71 -195 -61 -62
-157 -65 -193 -5 -48 79 3 261 85 302 48 23 119 19 152 -9z"/>
<path d="M4440 782 c-103 -56 -179 -264 -136 -375 10 -26 27 -49 45 -60 58
-34 152 -14 220 47 l24 21 -7 -42 c-6 -42 -6 -43 24 -43 23 0 31 5 35 23 30
137 86 439 82 444 -11 10 -57 -7 -57 -22 0 -25 -20 -27 -52 -4 -44 32 -131 37
-178 11z m138 -56 c15 -8 35 -23 45 -34 17 -19 18 -26 6 -79 -33 -154 -150
-268 -224 -219 -68 44 -31 264 54 322 40 27 79 31 119 10z"/>
<path d="M5580 560 c-54 -102 -261 -523 -258 -526 2 -2 31 9 64 25 32 16 122
57 199 91 208 92 221 98 330 150 122 58 135 64 305 138 158 70 290 132 290
138 0 2 -207 4 -460 4 -449 0 -460 0 -470 -20z"/>
</g>
</svg>
